<svg width="170" height="24" viewBox="0 0 170 24" fill="none" xmlns="http://www.w3.org/2000/svg">
<path d="M22.0469 23V20.625C21.2969 21.0312 20.4427 21.4062 19.4844 21.75C18.5365 22.0938 17.5312 22.3906 16.4688 22.6406C15.4167 22.8906 14.3333 23.0833 13.2188 23.2188C12.1042 23.3542 11.0104 23.4219 9.9375 23.4219C8.54167 23.4219 7.28646 23.2969 6.17188 23.0469C5.06771 22.7969 4.13021 22.4271 3.35938 21.9375C2.58854 21.4375 1.99479 20.8229 1.57812 20.0938C1.16146 19.3542 0.953125 18.5 0.953125 17.5312C0.953125 16.5729 1.19271 15.7292 1.67188 15C2.16146 14.2604 2.85417 13.6198 3.75 13.0781C4.64583 12.526 5.72396 12.0625 6.98438 11.6875C8.25521 11.3021 9.67188 10.9792 11.2344 10.7188C12.7969 10.4479 14.4844 10.2292 16.2969 10.0625C18.1198 9.88542 20.0365 9.73958 22.0469 9.625V7.98438C22.0469 7.31771 21.9219 6.72917 21.6719 6.21875C21.4219 5.70833 21.0729 5.26562 20.625 4.89062C20.1771 4.50521 19.651 4.1875 19.0469 3.9375C18.4427 3.67708 17.7865 3.46875 17.0781 3.3125C16.3802 3.15625 15.6406 3.04688 14.8594 2.98438C14.0885 2.91146 13.3125 2.875 12.5312 2.875C11.4792 2.875 10.5208 2.92708 9.65625 3.03125C8.79167 3.13542 7.98438 3.28125 7.23438 3.46875C6.48438 3.64583 5.76562 3.85417 5.07812 4.09375C4.39062 4.33333 3.69792 4.58854 3 4.85938V2.57812C4.44792 2.19271 5.98958 1.85938 7.625 1.57812C9.27083 1.28646 11.0156 1.14062 12.8594 1.14062C14.4219 1.14062 15.8802 1.27604 17.2344 1.54688C18.5885 1.80729 19.7656 2.22917 20.7656 2.8125C21.7656 3.39583 22.5521 4.15104 23.125 5.07812C23.6979 5.99479 23.9844 7.11458 23.9844 8.4375V23H22.0469ZM22.0469 11.3594C18.6406 11.5469 15.7292 11.8125 13.3125 12.1562C10.9062 12.5 8.9375 12.9219 7.40625 13.4219C5.875 13.9219 4.75 14.5052 4.03125 15.1719C3.32292 15.8385 2.96875 16.5938 2.96875 17.4375C2.96875 18.125 3.14062 18.7344 3.48438 19.2656C3.83854 19.7969 4.34375 20.2448 5 20.6094C5.65625 20.9635 6.45312 21.2344 7.39062 21.4219C8.32812 21.599 9.38021 21.6875 10.5469 21.6875C11.2344 21.6875 11.9427 21.651 12.6719 21.5781C13.4115 21.4948 14.1458 21.3854 14.875 21.25C15.6042 21.1042 16.3229 20.9375 17.0312 20.75C17.7396 20.5521 18.4062 20.3385 19.0312 20.1094C19.6562 19.8802 20.224 19.6354 20.7344 19.375C21.2552 19.1146 21.6927 18.849 22.0469 18.5781V11.3594ZM31.0469 23V1.53125H33V23H31.0469ZM56.1406 3.1875C55.8385 3.09375 55.4167 2.99479 54.875 2.89062C54.3438 2.77604 53.6562 2.71875 52.8125 2.71875C51.6458 2.71875 50.5469 2.86458 49.5156 3.15625C48.4948 3.4375 47.5417 3.82292 46.6562 4.3125C45.7812 4.80208 44.9688 5.375 44.2188 6.03125C43.4688 6.67708 42.7917 7.36458 42.1875 8.09375V23H40.2344V1.53125H42.1875V5.90625C42.8854 5.1875 43.6406 4.52604 44.4531 3.92188C45.276 3.31771 46.1406 2.80208 47.0469 2.375C47.9531 1.9375 48.901 1.59896 49.8906 1.35938C50.8906 1.10938 51.9219 0.984375 52.9844 0.984375C53.349 0.984375 53.6771 0.994792 53.9688 1.01562C54.2604 1.02604 54.526 1.04688 54.7656 1.07812C55.0156 1.09896 55.25 1.125 55.4688 1.15625C55.6875 1.1875 55.9115 1.22396 56.1406 1.26562V3.1875ZM61.7188 15.5781C61.7188 16.5469 61.7969 17.3802 61.9531 18.0781C62.1094 18.776 62.4375 19.349 62.9375 19.7969C63.4375 20.2448 64.1562 20.5781 65.0938 20.7969C66.0417 21.0052 67.2969 21.1094 68.8594 21.1094H78.5625V23H68.4688C66.75 23 65.3281 22.8646 64.2031 22.5938C63.0885 22.3125 62.1979 21.8854 61.5312 21.3125C60.875 20.7292 60.4167 19.9948 60.1562 19.1094C59.8958 18.224 59.7656 17.1719 59.7656 15.9531V1.53125H61.7188V15.5781ZM82.4844 23V1.53125H84.4375V23H82.4844ZM112.453 23V8.82812C112.453 7.64062 112.292 6.66667 111.969 5.90625C111.656 5.13542 111.203 4.52604 110.609 4.07812C110.026 3.63021 109.312 3.31771 108.469 3.14062C107.625 2.96354 106.677 2.875 105.625 2.875C104.406 2.875 103.208 3.02604 102.031 3.32812C100.865 3.61979 99.7604 3.99479 98.7188 4.45312C97.6771 4.90104 96.7188 5.40104 95.8438 5.95312C94.9688 6.50521 94.2292 7.03646 93.625 7.54688V23H91.6719V1.53125H93.625V5.29688C94.3542 4.83854 95.1562 4.35938 96.0312 3.85938C96.9167 3.34896 97.8646 2.88542 98.875 2.46875C99.8958 2.04167 100.984 1.69271 102.141 1.42188C103.297 1.15104 104.516 1.01562 105.797 1.01562C107.245 1.01562 108.505 1.19271 109.578 1.54688C110.661 1.89062 111.557 2.38542 112.266 3.03125C112.984 3.66667 113.521 4.44271 113.875 5.35938C114.229 6.26562 114.406 7.28125 114.406 8.40625V23H112.453ZM143.188 21.875C142.312 22.1458 141.5 22.3802 140.75 22.5781C140 22.7656 139.26 22.9167 138.531 23.0312C137.802 23.1562 137.057 23.2448 136.297 23.2969C135.547 23.3594 134.719 23.3906 133.812 23.3906C131.708 23.3906 129.807 23.1354 128.109 22.625C126.411 22.1146 124.964 21.3854 123.766 20.4375C122.578 19.4792 121.661 18.3229 121.016 16.9688C120.37 15.6146 120.047 14.0938 120.047 12.4062C120.047 10.7708 120.354 9.27083 120.969 7.90625C121.594 6.54167 122.464 5.36979 123.578 4.39062C124.693 3.41146 126.026 2.65104 127.578 2.10938C129.13 1.56771 130.844 1.29688 132.719 1.29688C134.667 1.29688 136.401 1.55729 137.922 2.07812C139.443 2.59896 140.724 3.34375 141.766 4.3125C142.807 5.28125 143.599 6.45833 144.141 7.84375C144.682 9.21875 144.953 10.7708 144.953 12.5V12.9844H122.062C122.177 14.3177 122.51 15.5208 123.062 16.5938C123.615 17.6667 124.396 18.5781 125.406 19.3281C126.427 20.0781 127.677 20.6562 129.156 21.0625C130.646 21.4583 132.38 21.6562 134.359 21.6562C135.203 21.6562 136.057 21.599 136.922 21.4844C137.786 21.3698 138.615 21.2188 139.406 21.0312C140.198 20.8333 140.922 20.6146 141.578 20.375C142.234 20.125 142.771 19.8698 143.188 19.6094V21.875ZM143.031 11.2812C142.958 10.1875 142.714 9.14583 142.297 8.15625C141.88 7.15625 141.255 6.27604 140.422 5.51562C139.599 4.75521 138.547 4.15104 137.266 3.70312C135.995 3.25521 134.469 3.03125 132.688 3.03125C131.01 3.03125 129.542 3.25521 128.281 3.70312C127.021 4.15104 125.953 4.75521 125.078 5.51562C124.203 6.26562 123.516 7.14062 123.016 8.14062C122.516 9.13021 122.198 10.1771 122.062 11.2812H143.031ZM168.016 4.70312C167.609 4.50521 167.141 4.29688 166.609 4.07812C166.078 3.84896 165.469 3.64583 164.781 3.46875C164.104 3.29167 163.339 3.14583 162.484 3.03125C161.63 2.90625 160.682 2.84375 159.641 2.84375C158.38 2.84375 157.255 2.91667 156.266 3.0625C155.286 3.20833 154.453 3.4375 153.766 3.75C153.089 4.05208 152.568 4.4375 152.203 4.90625C151.849 5.375 151.672 5.93229 151.672 6.57812C151.672 7.11979 151.839 7.59375 152.172 8C152.516 8.40625 152.974 8.76562 153.547 9.07812C154.13 9.39062 154.807 9.67708 155.578 9.9375C156.359 10.1875 157.182 10.4271 158.047 10.6562C158.922 10.875 159.818 11.099 160.734 11.3281C161.661 11.5573 162.557 11.8073 163.422 12.0781C164.297 12.3385 165.12 12.6354 165.891 12.9688C166.672 13.2917 167.349 13.6719 167.922 14.1094C168.505 14.5469 168.964 15.0469 169.297 15.6094C169.641 16.1719 169.812 16.8229 169.812 17.5625C169.812 18.3646 169.661 19.0677 169.359 19.6719C169.057 20.2656 168.646 20.7812 168.125 21.2188C167.615 21.6458 167.01 22.0052 166.312 22.2969C165.625 22.5781 164.885 22.8021 164.094 22.9688C163.312 23.1354 162.5 23.25 161.656 23.3125C160.823 23.3854 160 23.4219 159.188 23.4219C157.323 23.4219 155.63 23.2865 154.109 23.0156C152.599 22.7448 151.156 22.375 149.781 21.9062V19.5156C151.198 20.3594 152.693 20.9375 154.266 21.25C155.849 21.5625 157.51 21.7188 159.25 21.7188C160.479 21.7188 161.615 21.6458 162.656 21.5C163.698 21.3542 164.599 21.125 165.359 20.8125C166.12 20.4896 166.708 20.0729 167.125 19.5625C167.552 19.0521 167.766 18.4271 167.766 17.6875C167.766 17.0938 167.594 16.5729 167.25 16.125C166.917 15.6771 166.458 15.2865 165.875 14.9531C165.302 14.6094 164.625 14.3073 163.844 14.0469C163.073 13.7865 162.255 13.5469 161.391 13.3281C160.526 13.099 159.63 12.8802 158.703 12.6719C157.786 12.4531 156.896 12.2188 156.031 11.9688C155.167 11.7188 154.344 11.4375 153.562 11.125C152.792 10.8125 152.115 10.4479 151.531 10.0312C150.958 9.60417 150.5 9.11458 150.156 8.5625C149.823 8.01042 149.656 7.36979 149.656 6.64062C149.656 5.92188 149.792 5.28646 150.062 4.73438C150.333 4.17188 150.703 3.6875 151.172 3.28125C151.651 2.875 152.208 2.53646 152.844 2.26562C153.479 1.98438 154.156 1.76562 154.875 1.60938C155.604 1.44271 156.359 1.32292 157.141 1.25C157.922 1.17708 158.693 1.14062 159.453 1.14062C160.286 1.14062 161.073 1.17708 161.812 1.25C162.562 1.32292 163.281 1.42188 163.969 1.54688C164.667 1.66146 165.344 1.79688 166 1.95312C166.667 2.10938 167.339 2.27604 168.016 2.45312V4.70312Z" fill="white"/>
</svg>
